<?xml version="1.0" encoding="utf-8"?>
<!-- Generator: Adobe Illustrator 16.0.3, SVG Export Plug-In . SVG Version: 6.00 Build 0)  -->
<!DOCTYPE svg PUBLIC "-//W3C//DTD SVG 1.1//EN" "http://www.w3.org/Graphics/SVG/1.1/DTD/svg11.dtd">
<svg version="1.1"
	 id="svg3570" xmlns:dc="http://purl.org/dc/elements/1.1/" xmlns:cc="http://creativecommons.org/ns#" xmlns:rdf="http://www.w3.org/1999/02/22-rdf-syntax-ns#" xmlns:svg="http://www.w3.org/2000/svg" xmlns:sodipodi="http://sodipodi.sourceforge.net/DTD/sodipodi-0.dtd" xmlns:inkscape="http://www.inkscape.org/namespaces/inkscape" sodipodi:docname="quasar-logo-full.svg" inkscape:version="0.91 r13725"
	 xmlns="http://www.w3.org/2000/svg" xmlns:xlink="http://www.w3.org/1999/xlink" x="0px" y="0px" width="191.076px"
	 height="178.322px" viewBox="0 0 191.076 178.322" enable-background="new 0 0 191.076 178.322" xml:space="preserve">
<sodipodi:namedview  fit-margin-left="0" fit-margin-top="0" showgrid="false" inkscape:cy="27.706388" inkscape:cx="-39.753589" inkscape:zoom="1.979899" borderopacity="1.0" bordercolor="#666666" pagecolor="#ffffff" id="base" inkscape:window-maximized="1" inkscape:window-y="24" inkscape:window-x="0" inkscape:window-height="1056" inkscape:window-width="1920" inkscape:current-layer="g4895-4-4" inkscape:document-units="px" inkscape:pageopacity="0.0" fit-margin-right="0" fit-margin-bottom="0" inkscape:pageshadow="2">
	</sodipodi:namedview>
<g id="g4895-4-4" transform="translate(1419.0442,398.9018)">
	<g>
		<path fill="#808080" d="M-1374.146-269.277v24.948c0,0.576-0.204,1.068-0.612,1.476c-0.408,0.408-0.9,0.612-1.476,0.612h-21.42
			c-1.128,0-2.166-0.264-3.114-0.792c-0.948-0.527-1.692-1.248-2.232-2.16s-0.81-1.92-0.81-3.023v-21.061h2.916
			c0.12,0,0.228,0.049,0.324,0.145c0.096,0.096,0.144,0.204,0.144,0.323v20.88c0,0.745,0.264,1.363,0.792,1.854
			c0.527,0.492,1.188,0.738,1.98,0.738h7.704c-0.48-0.433-0.72-1.008-0.72-1.729v-22.212h2.916c0.12,0,0.228,0.049,0.324,0.145
			c0.095,0.096,0.144,0.204,0.144,0.323v22.788c0,0.192,0.065,0.354,0.198,0.486c0.132,0.132,0.293,0.198,0.486,0.198h8.388
			c0.192,0,0.354-0.072,0.486-0.216c0.132-0.145,0.198-0.3,0.198-0.469v-22.788c0-0.119,0.048-0.228,0.144-0.323
			c0.096-0.096,0.204-0.145,0.324-0.145H-1374.146z"/>
		<path fill="#808080" d="M-1366.694-268.196c0.072,0.072,0.108,0.168,0.108,0.288v2.952h-2.736c-0.096,0-0.186-0.042-0.27-0.126
			c-0.084-0.084-0.126-0.174-0.126-0.271v-2.952h2.736C-1366.862-268.305-1366.766-268.269-1366.694-268.196z M-1366.694-260.132
			c0.072,0.071,0.108,0.156,0.108,0.252v17.64h-2.736c-0.096,0-0.186-0.042-0.27-0.126c-0.084-0.084-0.126-0.174-0.126-0.271
			v-17.604h2.736C-1366.862-260.24-1366.766-260.204-1366.694-260.132z"/>
		<path fill="#808080" d="M-1342.844-259.538c0.804,0.468,1.44,1.104,1.908,1.908c0.468,0.804,0.702,1.686,0.702,2.646v12.744
			h-2.736c-0.096,0-0.187-0.042-0.27-0.126c-0.084-0.084-0.126-0.174-0.126-0.271v-12.527c0-0.576-0.205-1.074-0.612-1.494
			c-0.408-0.42-0.912-0.63-1.512-0.63h-4.68c0.432,0.265,0.648,0.6,0.648,1.008v14.04h-2.736c-0.096,0-0.187-0.042-0.27-0.126
			c-0.084-0.084-0.126-0.174-0.126-0.271v-14.256c0-0.119-0.036-0.216-0.108-0.288c-0.072-0.071-0.168-0.107-0.288-0.107h-5.436
			c-0.192,0-0.313,0.107-0.36,0.324v14.327c0,0.097-0.036,0.187-0.108,0.271c-0.072,0.084-0.168,0.126-0.288,0.126h-2.736v-15.66
			c0-0.647,0.228-1.199,0.684-1.656c0.456-0.455,1.008-0.684,1.656-0.684h14.148
			C-1344.531-260.24-1343.649-260.006-1342.844-259.538z"/>
		<path fill="#808080" d="M-1336.167-252.302c-0.192-0.229-0.288-0.486-0.288-0.774v-2.412c0-1.44,0.456-2.592,1.368-3.456
			s2.1-1.296,3.564-1.296h9.865v2.556c0,0.097-0.037,0.187-0.108,0.271c-0.072,0.084-0.169,0.126-0.288,0.126h-9.468
			c-1.2,0-1.8,0.588-1.8,1.764v1.044c0,0.168,0.108,0.301,0.324,0.396l11.124,2.628c0.288,0.048,0.521,0.186,0.702,0.414
			s0.271,0.485,0.271,0.773v3.204c0,1.513-0.48,2.694-1.44,3.546c-0.96,0.853-2.196,1.278-3.708,1.278h-10.188v-2.556
			c0-0.12,0.042-0.217,0.126-0.288c0.084-0.072,0.174-0.108,0.27-0.108h9.792c0.624,0,1.152-0.167,1.584-0.504
			c0.432-0.336,0.648-0.792,0.648-1.368v-1.691c0-0.192-0.108-0.312-0.324-0.36l-11.304-2.772
			C-1335.735-251.937-1335.975-252.074-1336.167-252.302z"/>
		<path fill="#808080" d="M-1278.783-242.24h-2.952c-0.168,0-0.306-0.048-0.414-0.144s-0.187-0.204-0.234-0.324l-2.411-6.948
			h-13.752l-2.412,6.948c-0.049,0.12-0.133,0.229-0.252,0.324c-0.121,0.096-0.252,0.144-0.396,0.144h-2.952l8.784-25.02
			c0.216-0.6,0.582-1.086,1.098-1.458c0.517-0.372,1.099-0.559,1.746-0.559h4.284c0.216,0,0.36,0.085,0.432,0.252L-1278.783-242.24z
			 M-1285.875-252.752l-4.681-13.429h-1.764c-0.313,0-0.528,0.157-0.648,0.469l-4.5,12.96H-1285.875z"/>
		<path fill="#808080" d="M-1261.594-244.689c-0.468,0.769-1.104,1.368-1.908,1.8c-0.804,0.433-1.687,0.648-2.646,0.648h-4.141
			c-0.528,0-1.008-0.113-1.439-0.342c-0.433-0.228-0.769-0.498-1.008-0.811v9.54c0,0.12-0.036,0.216-0.108,0.288
			s-0.168,0.108-0.288,0.108h-2.736v-25.668c0-0.312,0.114-0.576,0.343-0.792c0.228-0.216,0.497-0.324,0.81-0.324h8.568
			c1.535,0,2.795,0.42,3.779,1.26c0.984,0.841,1.477,2.112,1.477,3.816v7.848C-1260.892-246.332-1261.126-245.456-1261.594-244.689z
			 M-1264.023-255.164c0-1.416-0.708-2.124-2.124-2.124h-6.192c-0.096,0-0.187,0.036-0.27,0.107
			c-0.085,0.072-0.126,0.169-0.126,0.288v9.828c0.048,0.48,0.233,0.895,0.558,1.242c0.324,0.349,0.714,0.546,1.17,0.594h4.86
			c0.576,0,1.073-0.203,1.494-0.611c0.419-0.408,0.63-0.912,0.63-1.513V-255.164z"/>
		<path fill="#808080" d="M-1242.19-244.689c-0.468,0.769-1.104,1.368-1.908,1.8c-0.804,0.433-1.687,0.648-2.646,0.648h-4.141
			c-0.528,0-1.008-0.113-1.439-0.342c-0.433-0.228-0.769-0.498-1.008-0.811v9.54c0,0.12-0.036,0.216-0.108,0.288
			s-0.168,0.108-0.288,0.108h-2.736v-25.668c0-0.312,0.114-0.576,0.343-0.792c0.228-0.216,0.497-0.324,0.81-0.324h8.568
			c1.535,0,2.795,0.42,3.779,1.26c0.984,0.841,1.477,2.112,1.477,3.816v7.848C-1241.488-246.332-1241.723-245.456-1242.19-244.689z
			 M-1244.62-255.164c0-1.416-0.708-2.124-2.124-2.124h-6.192c-0.096,0-0.187,0.036-0.27,0.107
			c-0.085,0.072-0.126,0.169-0.126,0.288v9.828c0.048,0.48,0.233,0.895,0.558,1.242c0.324,0.349,0.714,0.546,1.17,0.594h4.86
			c0.576,0,1.073-0.203,1.494-0.611c0.419-0.408,0.63-0.912,0.63-1.513V-255.164z"/>
	</g>
	
		<g id="g5443-0-1-5-1-9" transform="matrix(0.55595317,0,0,0.55595317,-521.93484,-328.66104)" inkscape:export-filename="/home/emanuele/Desktop/logo1.png" inkscape:export-xdpi="44.860481" inkscape:export-ydpi="44.860481">
		
			<g id="g8856-6-1-1-9-0-1-9" transform="matrix(0.09527033,0,0,0.09527033,-1695.2716,706.62921)" inkscape:export-xdpi="3.4165223" inkscape:export-ydpi="3.4165223">
			
				<circle id="circle8858-1-3-7-6-5-3-0" inkscape:export-xdpi="10.031387" inkscape:export-ydpi="10.031387" fill="#FFFFFF" cx="2630.545" cy="-7555.271" r="1188.003">
			</circle>
			
				<path id="path8860-5-4-8-2-9-0-9" inkscape:connector-curvature="0" inkscape:export-xdpi="10.031387" inkscape:export-ydpi="10.031387" fill="#263238" d="
				M2824.97-7555.317c0,107.344-87.007,194.37-194.352,194.37l0,0c-107.344,0-194.37-87.026-194.37-194.37l0,0
				c0-107.326,87.026-194.352,194.37-194.352C2737.963-7749.669,2824.97-7662.662,2824.97-7555.317z"/>
			
				<path id="path8862-5-5-9-1-3-6-3" inkscape:transform-center-y="-444.04649" inkscape:transform-center-x="-514.04855" inkscape:connector-curvature="0" fill="#1976D2" d="
				M3493.372-8053.484c-42.259-72.718-93.571-139.795-152.682-199.606l-224.681,129.728
				c-70.045-59.83-149.64-105.647-234.601-135.959c-76.701,77.733-137.637,164.593-181.574,259.067
				c250.125-17.018,508.437,73.511,748.237,260.855l141.417-81.642C3567.399-7902.277,3535.097-7980.379,3493.372-8053.484
				L3493.372-8053.484z"/>
			
				<path id="path8864-4-8-1-2-4-4-4" inkscape:transform-center-y="265.80217" inkscape:transform-center-x="-689.63727" inkscape:connector-curvature="0" fill="#42A5F5" d="
				M3493.427-7057.224c41.835-72.958,74.267-150.931,96.521-232.02l-224.699-129.727c16.797-90.566,16.686-182.404,0.461-271.145
				c-105.685-27.564-211.388-36.912-315.155-27.712c139.794,208.088,190.553,477.056,148.202,778.42l141.417,81.642
				C3399.469-6917.503,3450.966-6984.543,3493.427-7057.224L3493.427-7057.224z"/>
			
				<path id="path8866-7-5-5-0-6-4-7" inkscape:transform-center-y="639.34029" inkscape:transform-center-x="-117.49007" inkscape:connector-curvature="0" fill="#1976D2" d="
				M2630.674-6559.057c84.094-0.24,167.82-11.136,249.185-32.413v-259.455c86.823-30.736,166.308-76.756,235.043-135.186
				c-28.966-105.297-73.732-201.505-133.581-286.779c-110.313,225.124-317.865,403.563-600.035,517.563v163.284
				C2462.688-6570.562,2546.488-6559.463,2630.674-6559.057z"/>
			
				<path id="path8868-6-7-4-7-2-7-3" inkscape:transform-center-y="444.04652" inkscape:transform-center-x="514.04857" inkscape:connector-curvature="0" fill="#42A5F5" d="
				M1767.847-7057.132c42.259,72.718,93.571,139.776,152.682,199.606l224.681-129.727c70.045,59.812,149.64,105.647,234.601,135.959
				c76.701-77.733,137.637-164.611,181.574-259.086c-250.125,17.018-508.437-73.492-748.237-260.856l-141.417,81.642
				C1693.82-7208.357,1726.123-7130.237,1767.847-7057.132L1767.847-7057.132z"/>
			
				<path id="path8870-5-3-9-3-5-5-1" inkscape:transform-center-y="-265.80221" inkscape:transform-center-x="689.63729" inkscape:connector-curvature="0" fill="#1976D2" d="
				M1767.792-8053.393c-41.835,72.958-74.267,150.912-96.521,232.02l224.7,129.728c-16.797,90.565-16.686,182.404-0.461,271.145
				c105.685,27.564,211.388,36.894,315.155,27.711c-139.794-208.106-190.553-477.075-148.202-778.419l-141.417-81.643
				C1861.75-8193.113,1810.254-8126.092,1767.792-8053.393z"/>
			
				<path id="path8872-6-3-2-1-3-3-7" inkscape:transform-center-y="-639.34032" inkscape:transform-center-x="117.49005" inkscape:connector-curvature="0" fill="#42A5F5" d="
				M2630.545-8551.578c-84.094,0.24-167.819,11.137-249.185,32.414v259.454c-86.823,30.735-166.308,76.756-235.043,135.185
				c28.965,105.297,73.732,201.505,133.581,286.798c110.313-225.124,317.865-403.564,600.035-517.564v-163.283
				C2798.531-8540.072,2714.731-8551.154,2630.545-8551.578L2630.545-8551.578z"/>
		</g>
	</g>
</g>
</svg>
